<svg xmlns="http://www.w3.org/2000/svg" width="24.206" height="24.945" viewBox="0 0 24.206 24.945">
  <g id="download-2" transform="translate(0 0)">
    <path id="Path_20" data-name="Path 20" d="M25.721,192.225c-10.3,4.9-16.686.8-20.776-1.69-.253-.157-.683.037-.31.465,1.363,1.652,5.828,5.635,11.658,5.635A13.572,13.572,0,0,0,26.03,192.9c.431-.551.127-.854-.309-.672Zm2.892-1.6c-.276-.36-1.681-.427-2.565-.319s-2.214.647-2.1.972c.059.122.18.067.789.012s2.319-.276,2.675.189-.545,2.7-.71,3.061.061.453.36.213a4.67,4.67,0,0,0,1.188-1.739,4.065,4.065,0,0,0,.363-2.39Z" transform="translate(-4.489 -171.69)" fill="#333"/>
    <path id="Path_21" data-name="Path 21" d="M61.078,10.974a6.455,6.455,0,0,1-.617,3.5,2.676,2.676,0,0,1-2.284,1.5c-1.267,0-2.005-.965-2.005-2.39,0-2.813,2.52-3.323,4.906-3.323Zm3.328,8.044a.689.689,0,0,1-.78.079,8.123,8.123,0,0,1-1.894-2.2,6.529,6.529,0,0,1-5.44,2.4c-2.776,0-4.939-1.713-4.939-5.143A5.607,5.607,0,0,1,54.872,8.76c1.792-.789,4.294-.928,6.206-1.146V7.187a4.246,4.246,0,0,0-.4-2.39,2.208,2.208,0,0,0-1.852-.859A2.516,2.516,0,0,0,56.172,5.92a.691.691,0,0,1-.571.6L52.4,6.18a.585.585,0,0,1-.492-.692c.738-3.88,4.242-5.05,7.38-5.05a7.482,7.482,0,0,1,4.971,1.643c1.606,1.5,1.453,3.5,1.453,5.676V12.9a4.514,4.514,0,0,0,1.244,3.059.62.62,0,0,1-.009.877c-.673.562-1.871,1.606-2.53,2.191l-.009-.009" transform="translate(-46.769 -0.438)" fill="#333" fill-rule="evenodd"/>
    <path id="Path_22" data-name="Path 22" d="M25.721,192.225c-10.3,4.9-16.686.8-20.776-1.69-.253-.157-.683.037-.31.465,1.363,1.652,5.828,5.635,11.658,5.635A13.572,13.572,0,0,0,26.03,192.9c.431-.551.127-.854-.309-.672Zm2.892-1.6c-.276-.36-1.681-.427-2.565-.319s-2.214.647-2.1.972c.059.122.18.067.789.012s2.319-.276,2.675.189-.545,2.7-.71,3.061.061.453.36.213a4.67,4.67,0,0,0,1.188-1.739,4.065,4.065,0,0,0,.363-2.39Z" transform="translate(-4.489 -171.69)" fill="#333"/>
    <path id="Path_23" data-name="Path 23" d="M61.078,10.974a6.455,6.455,0,0,1-.617,3.5,2.676,2.676,0,0,1-2.284,1.5c-1.267,0-2.005-.965-2.005-2.39,0-2.813,2.52-3.323,4.906-3.323Zm3.328,8.044a.689.689,0,0,1-.78.079,8.123,8.123,0,0,1-1.894-2.2,6.529,6.529,0,0,1-5.44,2.4c-2.776,0-4.939-1.713-4.939-5.143A5.607,5.607,0,0,1,54.872,8.76c1.792-.789,4.294-.928,6.206-1.146V7.187a4.246,4.246,0,0,0-.4-2.39,2.208,2.208,0,0,0-1.852-.859A2.516,2.516,0,0,0,56.172,5.92a.691.691,0,0,1-.571.6L52.4,6.18a.585.585,0,0,1-.492-.692c.738-3.88,4.242-5.05,7.38-5.05a7.482,7.482,0,0,1,4.971,1.643c1.606,1.5,1.453,3.5,1.453,5.676V12.9a4.514,4.514,0,0,0,1.244,3.059.62.62,0,0,1-.009.877c-.673.562-1.871,1.606-2.53,2.191l-.009-.009" transform="translate(-46.769 -0.438)" fill="#333" fill-rule="evenodd"/>
  </g>
</svg>
