<svg xmlns="http://www.w3.org/2000/svg" width="23.231" height="28.532" viewBox="0 0 23.231 28.532">
  <path id="download" d="M22.489,9.728A6.462,6.462,0,0,0,19.4,15.163a6.291,6.291,0,0,0,3.829,5.77,14.964,14.964,0,0,1-1.96,4.049c-1.221,1.758-2.5,3.513-4.437,3.513s-2.44-1.127-4.68-1.127c-2.183,0-2.959,1.164-4.734,1.164s-3.013-1.626-4.437-3.624A17.477,17.477,0,0,1,0,15.46C0,9.913,3.607,6.971,7.157,6.971c1.886,0,3.458,1.238,4.643,1.238,1.127,0,2.885-1.313,5.031-1.313a6.728,6.728,0,0,1,5.659,2.831ZM15.811,4.548A6.371,6.371,0,0,0,17.327.574,2.739,2.739,0,0,0,17.272,0a6.382,6.382,0,0,0-4.2,2.163A6.2,6.2,0,0,0,11.5,6.029a2.62,2.62,0,0,0,.054.516,2.233,2.233,0,0,0,.388.037A5.53,5.53,0,0,0,15.811,4.548Z" transform="translate(0 0)" fill="#fff"/>
</svg>
