<svg id="download" xmlns="http://www.w3.org/2000/svg" width="28" height="28" viewBox="0 0 28 28">
  <path id="Path_460" data-name="Path 460" d="M25.532,14.022h-.053c0-1.194.028-2.39-.008-3.584a33.189,33.189,0,0,0-.223-3.458,4.639,4.639,0,0,0-3.853-4.129,17.032,17.032,0,0,0-3.106-.279c-2.863-.036-5.727-.026-8.59-.005a22.037,22.037,0,0,0-2.551.169A4.716,4.716,0,0,0,2.874,6.477a13.655,13.655,0,0,0-.3,2.818c-.036,3.157-.029,6.314,0,9.471A14.062,14.062,0,0,0,2.8,21.225a4.6,4.6,0,0,0,3.585,3.9,10.7,10.7,0,0,0,2.418.3c2.929.05,5.859.063,8.788.056a30.558,30.558,0,0,0,3.121-.167,4.922,4.922,0,0,0,3.6-1.926,5.67,5.67,0,0,0,1.057-3.249C25.452,18.1,25.48,16.059,25.532,14.022ZM10.98,0h6.03c.131.012.262.028.394.036,1.361.084,2.734.077,4.08.269a7.245,7.245,0,0,1,6.224,6.111,25.645,25.645,0,0,1,.274,4.279c.019,2.209.031,4.418,0,6.626a37.178,37.178,0,0,1-.229,3.969A7.3,7.3,0,0,1,21.6,27.708a25.558,25.558,0,0,1-4.279.274c-2.2.019-4.4.032-6.6,0a35.633,35.633,0,0,1-4.026-.235,7.152,7.152,0,0,1-5.3-3.3,8.826,8.826,0,0,1-1.275-4.4C.07,19.206.039,18.364,0,17.523V10.468c.015-.187.032-.375.045-.563C.124,8.783.127,7.648.3,6.54A7.288,7.288,0,0,1,6.9.241C8.133.108,9.378.1,10.615.036,10.737.029,10.858.012,10.98,0Z" fill="#1f1f1f" fill-rule="evenodd"/>
  <path id="Path_461" data-name="Path 461" d="M7.068,8.936A1.527,1.527,0,0,0,8.712,10.45h.017A1.519,1.519,0,1,0,8.75,7.428,1.534,1.534,0,0,0,7.068,8.936Zm7.807,3.947-.018-1.263h-3.1l.017,8.953h3.1V15.5a1.928,1.928,0,0,1,.1-.708,1.558,1.558,0,0,1,1.479-1.065c1.075,0,1.4.8,1.4,1.979v4.863h3.08v-5.2c0-2.687-1.464-3.937-3.42-3.937A2.875,2.875,0,0,0,14.875,12.883ZM7.26,11.619l.017,8.953h3.056l-.015-8.953Z" fill="#1f1f1f"/>
</svg>
