<svg xmlns="http://www.w3.org/2000/svg" width="26.577" height="26.577" viewBox="0 0 26.577 26.577">
  <g id="spotify_bold" transform="translate(0 0)">
    <path id="Path_24" data-name="Path 24" d="M29.289,16A13.288,13.288,0,1,0,42.577,29.288,13.293,13.293,0,0,0,29.289,16Zm4.545,19.375a.983.983,0,0,1-.811.412,1.085,1.085,0,0,1-.585-.186,7.375,7.375,0,0,0-7-.864A.993.993,0,1,1,24.7,32.89a9.293,9.293,0,0,1,8.89,1.09A.993.993,0,0,1,33.833,35.375ZM35.3,31.667a.983.983,0,0,1-.811.412,1.085,1.085,0,0,1-.585-.186,10.1,10.1,0,0,0-9.648-1.183.993.993,0,1,1-.731-1.847,12.066,12.066,0,0,1,11.535,1.422A.987.987,0,0,1,35.3,31.667Zm2.086-3.561a.983.983,0,0,1-.811.412,1.085,1.085,0,0,1-.585-.186,14.148,14.148,0,0,0-13.554-1.661.993.993,0,1,1-.731-1.847,16.17,16.17,0,0,1,15.455,1.9A.969.969,0,0,1,37.381,28.106Z" transform="translate(-16 -16)" fill="#333"/>
  </g>
</svg>
