<svg xmlns="http://www.w3.org/2000/svg" xmlns:xlink="http://www.w3.org/1999/xlink" width="31.379" height="31.378" viewBox="0 0 31.379 31.378">
  <defs>
    <clipPath id="clip-path">
      <path id="Path_26" data-name="Path 26" d="M0,0H31.379V31.378H0Z" fill="#fff"/>
    </clipPath>
  </defs>
  <g id="youtube" transform="translate(-0.001 0)">
    <g id="Group_5" data-name="Group 5" transform="translate(0.001 0)">
      <g id="Group_4" data-name="Group 4" clip-path="url(#clip-path)">
        <path id="Path_25" data-name="Path 25" d="M30.721,35.245a3.642,3.642,0,0,0-1-1.66,3.988,3.988,0,0,0-1.749-.97c-2.455-.647-12.293-.647-12.293-.647A100.182,100.182,0,0,0,3.4,32.581a4.132,4.132,0,0,0-1.749.994A3.787,3.787,0,0,0,.634,35.243,38.032,38.032,0,0,0,0,42.426a37.964,37.964,0,0,0,.638,7.183,3.7,3.7,0,0,0,1.013,1.659A4.047,4.047,0,0,0,3.4,52.24c2.488.646,12.277.646,12.277.646a100.413,100.413,0,0,0,12.293-.614,3.988,3.988,0,0,0,1.749-.97,3.635,3.635,0,0,0,1-1.66,37.1,37.1,0,0,0,.655-7.184,34.749,34.749,0,0,0-.654-7.213ZM12.55,46.9V37.951l8.185,4.477Z" transform="translate(0.004 -26.737)" fill="#fff"/>
      </g>
    </g>
  </g>
</svg>
